<svg width="56" height="56" viewBox="0 0 56 56" fill="none" xmlns="http://www.w3.org/2000/svg">
<path d="M3.5 50.75C3.5 53.6484 5.85156 56 8.75 56H47.25C50.1484 56 52.5 53.6484 52.5 50.75V21H3.5V50.75ZM38.5 29.3125C38.5 28.5906 39.0906 28 39.8125 28H44.1875C44.9094 28 45.5 28.5906 45.5 29.3125V33.6875C45.5 34.4094 44.9094 35 44.1875 35H39.8125C39.0906 35 38.5 34.4094 38.5 33.6875V29.3125ZM38.5 43.3125C38.5 42.5906 39.0906 42 39.8125 42H44.1875C44.9094 42 45.5 42.5906 45.5 43.3125V47.6875C45.5 48.4094 44.9094 49 44.1875 49H39.8125C39.0906 49 38.5 48.4094 38.5 47.6875V43.3125ZM24.5 29.3125C24.5 28.5906 25.0906 28 25.8125 28H30.1875C30.9094 28 31.5 28.5906 31.5 29.3125V33.6875C31.5 34.4094 30.9094 35 30.1875 35H25.8125C25.0906 35 24.5 34.4094 24.5 33.6875V29.3125ZM24.5 43.3125C24.5 42.5906 25.0906 42 25.8125 42H30.1875C30.9094 42 31.5 42.5906 31.5 43.3125V47.6875C31.5 48.4094 30.9094 49 30.1875 49H25.8125C25.0906 49 24.5 48.4094 24.5 47.6875V43.3125ZM10.5 29.3125C10.5 28.5906 11.0906 28 11.8125 28H16.1875C16.9094 28 17.5 28.5906 17.5 29.3125V33.6875C17.5 34.4094 16.9094 35 16.1875 35H11.8125C11.0906 35 10.5 34.4094 10.5 33.6875V29.3125ZM10.5 43.3125C10.5 42.5906 11.0906 42 11.8125 42H16.1875C16.9094 42 17.5 42.5906 17.5 43.3125V47.6875C17.5 48.4094 16.9094 49 16.1875 49H11.8125C11.0906 49 10.5 48.4094 10.5 47.6875V43.3125ZM47.25 7H42V1.75C42 0.7875 41.2125 0 40.25 0H36.75C35.7875 0 35 0.7875 35 1.75V7H21V1.75C21 0.7875 20.2125 0 19.25 0H15.75C14.7875 0 14 0.7875 14 1.75V7H8.75C5.85156 7 3.5 9.35156 3.5 12.25V17.5H52.5V12.25C52.5 9.35156 50.1484 7 47.25 7Z" fill="#B4CFE9"/>
</svg>
