<svg width="56" height="56" viewBox="0 0 56 56" fill="none" xmlns="http://www.w3.org/2000/svg">
<g clip-path="url(#clip0_76_124)">
<path d="M52.5 31.5C52.5 22.7227 47.11 15.2119 39.4636 12.0728L35 21V8.75C35 8.28587 34.8156 7.84075 34.4874 7.51256C34.1592 7.18437 33.7141 7 33.25 7H22.75C22.2859 7 21.8408 7.18437 21.5126 7.51256C21.1844 7.84075 21 8.28587 21 8.75V21L16.5364 12.0728C8.89 15.2119 3.5 22.7227 3.5 31.5V38.5H52.5V31.5ZM54.25 42H1.75C1.28587 42 0.840752 42.1844 0.512563 42.5126C0.184375 42.8408 0 43.2859 0 43.75L0 47.25C0 47.7141 0.184375 48.1592 0.512563 48.4874C0.840752 48.8156 1.28587 49 1.75 49H54.25C54.7141 49 55.1592 48.8156 55.4874 48.4874C55.8156 48.1592 56 47.7141 56 47.25V43.75C56 43.2859 55.8156 42.8408 55.4874 42.5126C55.1592 42.1844 54.7141 42 54.25 42Z" fill="#B4CFE9"/>
</g>
<defs>
<clipPath id="clip0_76_124">
<rect width="56" height="56" fill="white"/>
</clipPath>
</defs>
</svg>
