<svg width="56" height="56" viewBox="0 0 56 56" fill="none" xmlns="http://www.w3.org/2000/svg">
<path d="M44.1 36.4H11.935C11.55 36.4 11.235 36.715 11.235 37.1L11.2263 41.3C11.2263 41.685 11.5413 42 11.9263 42H44.1C44.485 42 44.8 41.685 44.8 41.3V37.1C44.8 36.715 44.485 36.4 44.1 36.4ZM44.1 44.8H11.9088C11.5238 44.8 11.2088 45.115 11.2088 45.5L11.2 49.7C11.2 50.085 11.515 50.4 11.9 50.4H44.1C44.485 50.4 44.8 50.085 44.8 49.7V45.5C44.8 45.115 44.485 44.8 44.1 44.8ZM44.1 28H11.9525C11.5675 28 11.2525 28.315 11.2525 28.7L11.2437 32.9C11.2437 33.285 11.5587 33.6 11.9437 33.6H44.1C44.485 33.6 44.8 33.285 44.8 32.9V28.7C44.8 28.315 44.485 28 44.1 28ZM53.4187 15.8375L29.61 5.92374C29.0983 5.71145 28.5497 5.60217 27.9956 5.60217C27.4416 5.60217 26.893 5.71145 26.3812 5.92374L2.58125 15.8375C1.02375 16.4937 0 18.0162 0 19.7137V49.7C0 50.085 0.315 50.4 0.7 50.4H7.7C8.085 50.4 8.4 50.085 8.4 49.7V28C8.4 26.46 9.6775 25.2 11.2525 25.2H44.7475C46.3225 25.2 47.6 26.46 47.6 28V49.7C47.6 50.085 47.915 50.4 48.3 50.4H55.3C55.685 50.4 56 50.085 56 49.7V19.7137C56 18.0162 54.9762 16.4937 53.4187 15.8375V15.8375Z" fill="#B4CFE9"/>
</svg>
