<svg width="56" height="56" viewBox="0 0 56 56" fill="none" xmlns="http://www.w3.org/2000/svg">
<path d="M46.2 35C41.9475 35 38.5 38.4475 38.5 42.7C38.5 46.9525 41.9475 50.4 46.2 50.4C50.4525 50.4 53.9 46.9525 53.9 42.7C53.9 38.4475 50.4525 35 46.2 35ZM46.2 44.8C45.0424 44.8 44.1 43.8576 44.1 42.7C44.1 41.5424 45.0424 40.6 46.2 40.6C47.3576 40.6 48.3 41.5424 48.3 42.7C48.3 43.8576 47.3576 44.8 46.2 44.8ZM53.2 19.6H47.6V16.0825C47.6 14.847 48.0113 13.6535 48.7506 12.684C49.1374 12.1765 49.0613 11.4538 48.6351 10.9786L46.7425 8.86376C46.1598 8.21188 45.1395 8.25826 44.5812 8.93201C42.9257 10.9288 42 13.4584 42 16.0825V19.6H33.0461L28.1382 8.14976C27.8158 7.39273 27.2778 6.74732 26.5912 6.29392C25.9046 5.84052 25.0997 5.5992 24.2769 5.60001H12.6C10.2839 5.60001 8.4 7.48388 8.4 9.80001V22.6205C7.64487 22.0316 6.566 22.0553 5.87212 22.7491L3.15 25.4713C2.39837 26.2229 2.39837 27.4418 3.15 28.1934L3.59275 28.6361C3.15613 29.4464 2.80875 30.2829 2.55062 31.1491H1.925C0.861875 31.1491 0 32.011 0 33.0741V36.9241C0 37.9873 0.861875 38.8491 1.925 38.8491H2.54975C2.80875 39.7163 3.15525 40.5519 3.59187 41.363L3.14913 41.8058C2.3975 42.5574 2.3975 43.7763 3.14913 44.5279L5.87125 47.25C6.62287 48.0016 7.84175 48.0016 8.59337 47.25L9.03612 46.8073C9.84637 47.2439 10.6829 47.5913 11.5491 47.8494V48.475C11.5491 49.5381 12.411 50.4 13.4741 50.4H17.3241C18.3873 50.4 19.2491 49.5381 19.2491 48.475V47.8503C20.1154 47.5921 20.9519 47.2448 21.7621 46.8081L22.2049 47.2509C22.9565 48.0025 24.1754 48.0025 24.927 47.2509L27.6491 44.5288C28.4007 43.7771 28.4007 42.5583 27.6491 41.8066L27.2064 41.3639C27.643 40.5536 27.9904 39.7171 28.2485 38.8509H28.875C29.9381 38.8509 30.8 37.989 30.8 36.9259V36.4009H37.8473C39.7644 33.8643 42.7752 32.2009 46.2 32.2009C47.831 32.2009 49.3561 32.6043 50.7325 33.2684L55.1792 28.8216C55.7042 28.2966 55.9991 27.5844 55.9991 26.8415V22.4C56 20.8539 54.7461 19.6 53.2 19.6ZM15.4 42C11.5342 42 8.4 38.8658 8.4 35C8.4 31.1343 11.5342 28 15.4 28C19.2657 28 22.4 31.1343 22.4 35C22.4 38.8658 19.2657 42 15.4 42ZM17.325 19.6H14V11.2H23.3529L26.9535 19.6H17.325Z" fill="#B4CFE9"/>
</svg>
